<svg width="53" height="56" viewBox="0 0 53 56" fill="none" xmlns="http://www.w3.org/2000/svg">
<rect x="8.96288" y="0.487574" width="34.9587" height="16.7802" rx="6.52341" fill="#696969"/>
<path fill-rule="evenodd" clip-rule="evenodd" d="M2.48299 7.90076C0.572332 9.81142 0.572332 12.8866 0.572332 19.0369V42.4657C0.572332 48.616 0.572332 51.6911 2.48299 53.6018C4.39365 55.5125 7.46882 55.5125 13.6191 55.5125H39.7128C45.8631 55.5125 48.9383 55.5125 50.8489 53.6018C52.7596 51.6911 52.7596 48.616 52.7596 42.4657V42.4657C52.7596 40.2273 50.945 38.4128 48.7067 38.4128H26.944C22.7433 38.4128 19.338 35.0074 19.338 30.8067C19.338 26.6061 22.7433 23.2007 26.944 23.2007H48.5958C50.8954 23.2007 52.7596 21.3365 52.7596 19.0369V19.0369C52.7596 12.8866 52.7596 9.81142 50.8489 7.90076C48.9383 5.9901 45.8631 5.9901 39.7128 5.9901H13.6191C7.46882 5.9901 4.39365 5.9901 2.48299 7.90076Z" fill="url(#paint0_linear_0_8)"/>
<g filter="url(#filter0_d_0_8)">
<circle cx="27.5386" cy="30.7513" r="5.65362" fill="url(#paint1_linear_0_8)"/>
</g>
<defs>
<filter id="filter0_d_0_8" x="9.88495" y="19.0977" width="35.3072" height="35.3072" filterUnits="userSpaceOnUse" color-interpolation-filters="sRGB">
<feFlood flood-opacity="0" result="BackgroundImageFix"/>
<feColorMatrix in="SourceAlpha" type="matrix" values="0 0 0 0 0 0 0 0 0 0 0 0 0 0 0 0 0 0 127 0" result="hardAlpha"/>
<feOffset dy="6"/>
<feGaussianBlur stdDeviation="6"/>
<feComposite in2="hardAlpha" operator="out"/>
<feColorMatrix type="matrix" values="0 0 0 0 0.301961 0 0 0 0 0.545098 0 0 0 0 0.894118 0 0 0 1 0"/>
<feBlend mode="normal" in2="BackgroundImageFix" result="effect1_dropShadow_0_8"/>
<feBlend mode="normal" in="SourceGraphic" in2="effect1_dropShadow_0_8" result="shape"/>
</filter>
<linearGradient id="paint0_linear_0_8" x1="26.666" y1="5.9901" x2="51.4981" y2="65.5" gradientUnits="userSpaceOnUse">
<stop stop-color="#5A5A5A"/>
<stop offset="1" stop-color="#292929"/>
</linearGradient>
<linearGradient id="paint1_linear_0_8" x1="24" y1="25" x2="33.1922" y2="39.4202" gradientUnits="userSpaceOnUse">
<stop stop-color="#6CA9FF"/>
<stop offset="1" stop-color="#0042A0"/>
</linearGradient>
</defs>
</svg>
