<svg width="148" height="56" viewBox="0 0 148 56" fill="none" xmlns="http://www.w3.org/2000/svg">
<path d="M12.7268 29.2593H18.3502L11.0744 19.798L17.9771 11.4828H12.327L6.86351 18.7853V11.4828H2.27948V29.2593H6.86351V24.0622L8.06282 22.5698L12.7268 29.2593ZM21.6629 14.7609C22.9688 14.7609 24.0082 13.7215 24.0082 12.4156C24.0082 11.1097 22.9688 10.0703 21.6629 10.0703C20.357 10.0703 19.3176 11.1097 19.3176 12.4156C19.3176 13.7215 20.357 14.7609 21.6629 14.7609ZM19.6108 29.2593H23.7151V16.3867H19.6108V29.2593ZM27.5695 29.2593H31.6738V19.9579H34.2857V16.3867H31.6738V15.8536C31.6738 14.8675 32.2335 14.3345 33.0864 14.3345C33.4595 14.3345 33.8326 14.4145 34.1524 14.601L34.8986 11.8026C34.259 11.4562 33.2996 11.2163 32.1802 11.2163C29.5151 11.2163 27.5695 13.0019 27.5695 15.747V16.3867H25.4374V19.9579H27.5695V29.2593ZM40.0859 34.1631V27.7401C41.1519 29.0194 42.4578 29.5791 43.897 29.5791C47.1218 29.5791 49.5471 27.1805 49.5471 22.8096C49.5471 18.4655 47.1218 16.0668 43.897 16.0668C42.4312 16.0668 41.0986 16.6532 40.0859 17.8791V16.3867H35.9816V34.1631H40.0859ZM45.3628 22.8096C45.3628 24.7552 44.1369 25.9545 42.5378 25.9545C41.6583 25.9545 40.5922 25.4481 40.0859 24.7818V20.8641C40.5922 20.1711 41.6583 19.6914 42.5378 19.6914C44.1369 19.6914 45.3628 20.8907 45.3628 22.8096ZM57.8582 29.5791C62.2823 29.5791 64.8941 26.4342 64.8941 22.8096C64.8941 19.185 62.2823 16.0668 57.8582 16.0668C53.4873 16.0668 50.8489 19.185 50.8489 22.8096C50.8489 26.4342 53.4873 29.5791 57.8582 29.5791ZM57.8582 25.9545C56.0725 25.9545 55.0864 24.542 55.0864 22.8096C55.0864 21.1039 56.0725 19.6914 57.8582 19.6914C59.6704 19.6914 60.6832 21.1039 60.6832 22.8096C60.6832 24.542 59.6704 25.9545 57.8582 25.9545ZM73.2139 29.5791C77.638 29.5791 80.2499 26.4342 80.2499 22.8096C80.2499 19.185 77.638 16.0668 73.2139 16.0668C68.8431 16.0668 66.2046 19.185 66.2046 22.8096C66.2046 26.4342 68.8431 29.5791 73.2139 29.5791ZM73.2139 25.9545C71.4283 25.9545 70.4422 24.542 70.4422 22.8096C70.4422 21.1039 71.4283 19.6914 73.2139 19.6914C75.0262 19.6914 76.039 21.1039 76.039 22.8096C76.039 24.542 75.0262 25.9545 73.2139 25.9545ZM82.4132 29.2593H86.5175V11.4828H82.4132V29.2593Z" fill="white"/>
<path d="M2.90038 45.5397C2.30316 45.5397 1.84189 45.3649 1.51657 45.0153C1.19611 44.6706 1.03588 44.1826 1.03588 43.5514V42.2331H1.43645V43.5441C1.43645 44.0588 1.56512 44.4521 1.82246 44.724C2.07981 45.0008 2.44639 45.1391 2.92223 45.1391H3.24269C3.54374 45.1391 3.81079 45.0736 4.04385 44.9425C4.27691 44.8162 4.45657 44.6366 4.58281 44.4035C4.71391 44.1705 4.77946 43.901 4.77946 43.5951V39.0139H5.17275V43.5441C5.17275 43.9423 5.09021 44.2918 4.92512 44.5929C4.76003 44.8939 4.53183 45.127 4.2405 45.2921C3.94917 45.4572 3.61657 45.5397 3.24269 45.5397H2.90038ZM9.9934 43.3329C10.042 43.3329 10.0662 43.4033 10.0662 43.5441C10.0662 43.6752 10.042 43.7408 9.9934 43.7408H9.21409C9.1801 44.2991 8.99317 44.7386 8.65328 45.059C8.31825 45.3795 7.87883 45.5397 7.33502 45.5397H6.51201L6.46103 45.1391H7.31317C7.76958 45.1391 8.13375 45.0129 8.40565 44.7604C8.67756 44.5079 8.81837 44.168 8.82808 43.7408H7.96866C7.48311 43.7408 7.13109 43.6436 6.91259 43.4494C6.69895 43.2503 6.59213 42.942 6.59213 42.5245C6.59213 42.2331 6.64797 41.9758 6.75964 41.7524C6.87617 41.5242 7.03398 41.347 7.23305 41.2208C7.43213 41.0945 7.65791 41.0314 7.91039 41.0314C8.31825 41.0314 8.63872 41.1698 8.87178 41.4465C9.1097 41.7184 9.22866 42.0899 9.22866 42.5609V43.3329H9.9934ZM6.98542 42.488C6.98542 42.7988 7.05825 43.0173 7.20392 43.1435C7.35444 43.2698 7.62149 43.3329 8.00508 43.3329H8.82808V42.641C8.82808 42.238 8.74796 41.9345 8.58773 41.7306C8.4275 41.5266 8.18958 41.4247 7.87398 41.4247C7.61178 41.4247 7.39814 41.5218 7.23305 41.716C7.06797 41.9102 6.98542 42.1676 6.98542 42.488ZM11.7303 43.3329C11.9439 43.3329 12.1139 43.2771 12.2401 43.1654C12.3663 43.0537 12.4295 42.8959 12.4295 42.692V41.5048H12.83V42.6774C12.83 43.0076 12.7281 43.2673 12.5241 43.4567C12.3202 43.6461 12.0556 43.7408 11.7303 43.7408H9.99687C9.94831 43.7408 9.92404 43.6752 9.92404 43.5441C9.92404 43.4033 9.94831 43.3329 9.99687 43.3329H11.7303ZM11.8905 44.7531V45.1537H10.0697V44.7531H11.8905ZM10.7252 46.0495V45.6271H11.235V46.0495H10.7252ZM19.6375 43.3329C19.4142 43.2018 19.2394 43.0343 19.1131 42.8303C18.9869 42.6216 18.9238 42.3982 18.9238 42.1603C18.9238 41.9175 18.982 41.6942 19.0986 41.4902C19.22 41.2863 19.3826 41.1261 19.5866 41.0095C19.7953 40.893 20.0235 40.8347 20.2712 40.8347C20.5237 40.8347 20.7494 40.8906 20.9485 41.0023C21.1524 41.1091 21.3103 41.262 21.4219 41.4611C21.5385 41.6553 21.5967 41.8762 21.5967 42.1239C21.5967 42.3812 21.5336 42.6094 21.4074 42.8085C21.286 43.0076 21.099 43.1824 20.8466 43.3329H22.3032C22.3518 43.3329 22.376 43.4033 22.376 43.5441C22.376 43.6752 22.3518 43.7408 22.3032 43.7408H21.3418C21.0311 43.7408 20.8029 43.7359 20.6572 43.7262C20.5115 43.7116 20.3926 43.6849 20.3003 43.6461C20.2081 43.6801 20.0794 43.7043 19.9143 43.7189C19.7492 43.7335 19.5113 43.7408 19.2005 43.7408H17.1394C16.7218 43.7408 16.4086 43.6315 16.1998 43.413C15.9959 43.1897 15.894 42.8959 15.894 42.5317V41.5048H16.2945V42.4735C16.2945 43.0464 16.5883 43.3329 17.1758 43.3329H19.6375ZM20.2712 43.311C20.5819 43.1702 20.815 43.0027 20.9704 42.8085C21.1257 42.6094 21.2034 42.3934 21.2034 42.1603C21.2034 41.8835 21.1185 41.6602 20.9485 41.4902C20.7834 41.3203 20.5576 41.2353 20.2712 41.2353C19.9993 41.2353 19.7711 41.3227 19.5866 41.4975C19.4069 41.6723 19.3171 41.8932 19.3171 42.1603C19.3171 42.4031 19.3972 42.624 19.5574 42.8231C19.7225 43.0173 19.9604 43.1799 20.2712 43.311ZM19.9361 39.9171V39.4582H20.5625V39.9171H19.9361ZM23.1755 43.3329C23.4086 43.3329 23.5931 43.2771 23.7291 43.1654C23.865 43.0488 23.933 42.891 23.933 42.692V41.5048H24.3263V42.6847C24.3263 42.8935 24.387 43.0537 24.5084 43.1654C24.6298 43.2771 24.8046 43.3329 25.0328 43.3329H25.1639C25.2124 43.3329 25.2367 43.4009 25.2367 43.5368C25.2367 43.6728 25.2124 43.7408 25.1639 43.7408H25.0182C24.79 43.7408 24.5982 43.7019 24.4428 43.6242C24.2874 43.5417 24.1782 43.4203 24.1151 43.2601C24.0325 43.4154 23.9087 43.5344 23.7436 43.6169C23.5834 43.6995 23.394 43.7408 23.1755 43.7408H22.3015C22.253 43.7408 22.2287 43.6752 22.2287 43.5441C22.2287 43.4033 22.253 43.3329 22.3015 43.3329H23.1755ZM23.7728 44.7531V45.1537H21.952V44.7531H23.7728ZM27.2147 43.3329C27.4623 43.3329 27.6565 43.2795 27.7973 43.1727C27.9381 43.0658 28.0085 42.925 28.0085 42.7502C28.0085 42.5172 27.8969 42.289 27.6735 42.0656L25.8891 40.2594V39.9025L28.4819 38.8464L28.6058 39.2324L26.3334 40.1501L27.9867 41.8253C28.2634 42.0972 28.4018 42.4006 28.4018 42.7357C28.4018 43.0416 28.2974 43.2868 28.0886 43.4713C27.8847 43.6509 27.5934 43.7408 27.2147 43.7408H25.1608C25.1122 43.7408 25.088 43.6752 25.088 43.5441C25.088 43.4033 25.1122 43.3329 25.1608 43.3329H27.2147ZM33.7187 41.046C33.9712 41.046 34.18 41.1042 34.3451 41.2208C34.5101 41.3373 34.5927 41.5097 34.5927 41.7379C34.5927 41.8592 34.5611 41.9782 34.498 42.0947C34.4397 42.2113 34.3305 42.3497 34.1703 42.5099C34.01 42.6701 33.7745 42.8765 33.4638 43.129C33.5657 43.2066 33.6944 43.2601 33.8498 43.2892C34.0052 43.3183 34.2528 43.3329 34.5927 43.3329H35.2336C35.2822 43.3329 35.3064 43.4033 35.3064 43.5441C35.3064 43.6752 35.2822 43.7408 35.2336 43.7408H34.5927C34.2625 43.7408 34.0027 43.7286 33.8134 43.7043C33.624 43.6801 33.4711 43.6388 33.3545 43.5805C33.238 43.5223 33.1288 43.4397 33.0268 43.3329C32.6432 43.5708 32.3689 43.8087 32.2038 44.0466C32.0436 44.2846 31.9634 44.5419 31.9634 44.8187C31.9634 45.1877 32.0703 45.4547 32.2839 45.6198C32.5024 45.7898 32.8641 45.8747 33.3691 45.8747H34.7893L34.7456 46.2826H33.3327C32.7112 46.2826 32.2596 46.1636 31.978 45.9257C31.7012 45.6927 31.5629 45.3261 31.5629 44.826C31.5629 44.4958 31.6527 44.1899 31.8323 43.9083C32.0168 43.6266 32.3009 43.3523 32.6845 43.0853L31.5774 41.4829L31.8251 41.046H33.7187ZM34.2067 41.8107C34.2067 41.6893 34.1581 41.5971 34.061 41.5339C33.9688 41.466 33.8352 41.432 33.6604 41.432H31.9999L33.0923 43.0051C33.539 42.6458 33.8352 42.3861 33.9809 42.2258C34.1314 42.0656 34.2067 41.9272 34.2067 41.8107ZM36.9655 43.3329C37.1792 43.3329 37.3491 43.2771 37.4754 43.1654C37.6016 43.0537 37.6647 42.8959 37.6647 42.692V41.5048H38.0653V42.6774C38.0653 43.0076 37.9633 43.2673 37.7594 43.4567C37.5555 43.6461 37.2909 43.7408 36.9655 43.7408H35.2321C35.1836 43.7408 35.1593 43.6752 35.1593 43.5441C35.1593 43.4033 35.1836 43.3329 35.2321 43.3329H36.9655ZM37.1258 44.7531V45.1537H35.305V44.7531H37.1258ZM38.3507 45.1391C38.8168 45.1391 39.181 44.9983 39.4431 44.7167C39.7102 44.4399 39.8437 44.0564 39.8437 43.566V41.5048H40.237V42.6992C40.237 42.8935 40.2977 43.0488 40.4191 43.1654C40.5453 43.2771 40.7177 43.3329 40.9362 43.3329H41.0163C41.0649 43.3329 41.0892 43.4033 41.0892 43.5441C41.0892 43.6752 41.0649 43.7408 41.0163 43.7408H40.9362C40.7857 43.7408 40.6449 43.7116 40.5138 43.6534C40.3827 43.5951 40.2904 43.5198 40.237 43.4276V43.5878C40.237 43.9908 40.1569 44.338 39.9967 44.6293C39.8364 44.9255 39.6155 45.1513 39.3339 45.3066C39.0523 45.462 38.7342 45.5397 38.3798 45.5397H38.1831L38.1394 45.1391H38.3507ZM41.5681 43.3329C41.8158 43.3329 42.0076 43.2746 42.1435 43.1581C42.2843 43.0367 42.3547 42.8765 42.3547 42.6774V41.5048H42.7553V42.6774C42.7553 42.891 42.816 43.0537 42.9374 43.1654C43.0636 43.2771 43.2457 43.3329 43.4836 43.3329C43.7264 43.3329 43.9182 43.2746 44.059 43.1581C44.1998 43.0367 44.2702 42.8765 44.2702 42.6774V41.5048H44.6635V42.6774C44.6635 42.8862 44.7242 43.0488 44.8456 43.1654C44.967 43.2771 45.1394 43.3329 45.3627 43.3329C45.5861 43.3329 45.7609 43.2771 45.8871 43.1654C46.0182 43.0488 46.0837 42.8862 46.0837 42.6774V41.5048H46.477V42.6483C46.477 42.9882 46.3751 43.2552 46.1711 43.4494C45.9672 43.6436 45.6977 43.7408 45.3627 43.7408C45.1296 43.7408 44.9354 43.6995 44.78 43.6169C44.6247 43.5295 44.513 43.4082 44.445 43.2528C44.3625 43.4082 44.2362 43.5295 44.0663 43.6169C43.9012 43.6995 43.707 43.7408 43.4836 43.7408C43.236 43.7408 43.0321 43.6995 42.8718 43.6169C42.7116 43.5344 42.5999 43.413 42.5368 43.2528C42.4494 43.4082 42.3207 43.5295 42.1508 43.6169C41.9857 43.6995 41.7915 43.7408 41.5681 43.7408H41.0146C40.9661 43.7408 40.9418 43.6752 40.9418 43.5441C40.9418 43.4033 40.9661 43.3329 41.0146 43.3329H41.5681ZM52.2452 43.5587C52.2452 43.9568 52.1651 44.3064 52.0049 44.6075C51.8495 44.9085 51.6286 45.1391 51.3421 45.2994C51.0605 45.4596 50.7303 45.5397 50.3516 45.5397H49.5286L49.4776 45.1391H50.3298C50.7862 45.1391 51.1503 45.0129 51.4222 44.7604C51.6941 44.5079 51.835 44.168 51.8447 43.7408H50.9852C50.4997 43.7408 50.1477 43.6436 49.9292 43.4494C49.7155 43.2503 49.6087 42.942 49.6087 42.5245C49.6087 42.2331 49.6646 41.9758 49.7762 41.7524C49.8928 41.5242 50.0506 41.347 50.2496 41.2208C50.4487 41.0945 50.6745 41.0314 50.927 41.0314C51.3348 41.0314 51.6553 41.1698 51.8884 41.4465C52.1263 41.7184 52.2452 42.0899 52.2452 42.5609V43.5587ZM50.002 42.488C50.002 42.7988 50.0748 43.0173 50.2205 43.1435C50.371 43.2698 50.6381 43.3329 51.0217 43.3329H51.8447V42.641C51.8447 42.238 51.7646 41.9345 51.6043 41.7306C51.4441 41.5266 51.2062 41.4247 50.8906 41.4247C50.6284 41.4247 50.4147 41.5218 50.2496 41.716C50.0846 41.9102 50.002 42.1676 50.002 42.488ZM59.4485 42.7211C59.4485 42.9056 59.5092 43.0537 59.6306 43.1654C59.7519 43.2771 59.917 43.3329 60.1258 43.3329H60.2278C60.2763 43.3329 60.3006 43.4033 60.3006 43.5441C60.3006 43.6752 60.2763 43.7408 60.2278 43.7408H60.1331C59.9874 43.7408 59.8491 43.714 59.718 43.6606C59.5917 43.6072 59.5019 43.5344 59.4485 43.4421V43.6024C59.4485 43.9811 59.3659 44.3161 59.2008 44.6075C59.0358 44.9036 58.8051 45.1318 58.5089 45.2921C58.2176 45.4572 57.8874 45.5397 57.5184 45.5397H57.1761C56.5789 45.5397 56.1176 45.3649 55.7923 45.0153C55.4718 44.6706 55.3116 44.1826 55.3116 43.5514V42.2331H55.7122V43.5441C55.7122 44.0588 55.8408 44.4521 56.0982 44.724C56.3555 45.0008 56.7221 45.1391 57.198 45.1391H57.5184C57.8195 45.1391 58.0865 45.0736 58.3196 44.9425C58.5526 44.8162 58.7323 44.6366 58.8585 44.4035C58.9896 44.1705 59.0552 43.901 59.0552 43.5951V41.5048H59.4485V42.7211ZM56.9212 41.228V40.7692H57.5476V41.228H56.9212ZM60.3785 43.3329C60.5776 43.3329 60.7305 43.2868 60.8374 43.1945C60.9442 43.1023 60.9976 42.9663 60.9976 42.7866V42.4371C60.9976 41.9709 61.1117 41.6092 61.3399 41.3519C61.5681 41.0897 61.8886 40.9586 62.3013 40.9586C62.7189 40.9586 63.0369 41.0799 63.2554 41.3227C63.4787 41.5655 63.5904 41.9175 63.5904 42.3788C63.5904 42.8109 63.4739 43.146 63.2408 43.3839C63.0126 43.6218 62.697 43.7408 62.294 43.7408C61.7793 43.7408 61.4273 43.566 61.2379 43.2164C61.17 43.4009 61.068 43.5344 60.932 43.6169C60.7961 43.6995 60.6116 43.7408 60.3785 43.7408H60.2256C60.177 43.7408 60.1527 43.6752 60.1527 43.5441C60.1527 43.4033 60.177 43.3329 60.2256 43.3329H60.3785ZM63.1898 42.3788C63.1898 41.6942 62.8912 41.3519 62.294 41.3519C61.9833 41.3519 61.755 41.4417 61.6094 41.6213C61.4637 41.7961 61.3909 42.068 61.3909 42.4371C61.3909 42.709 61.471 42.9275 61.6312 43.0925C61.7963 43.2528 62.0172 43.3329 62.294 43.3329C62.8912 43.3329 63.1898 43.0149 63.1898 42.3788ZM64.9437 39.0139H65.3443V43.7408H64.9437V39.0139ZM73.5386 43.3329C73.5871 43.3329 73.6114 43.4033 73.6114 43.5441C73.6114 43.6752 73.5871 43.7408 73.5386 43.7408H72.7229C72.82 43.833 72.8685 43.9714 72.8685 44.1559C72.8685 44.4278 72.7884 44.6681 72.6282 44.8769C72.4728 45.0857 72.247 45.2484 71.9508 45.3649C71.6546 45.4814 71.3099 45.5397 70.9166 45.5397H70.3485C69.7513 45.5397 69.29 45.3649 68.9647 45.0153C68.6442 44.6706 68.484 44.1826 68.484 43.5514V42.2331H68.8846V43.5441C68.8846 44.0588 69.0133 44.4521 69.2706 44.724C69.5279 45.0008 69.8945 45.1391 70.3704 45.1391H70.9166C71.407 45.1391 71.7882 45.0517 72.0601 44.8769C72.3368 44.707 72.4752 44.4764 72.4752 44.185C72.4752 43.884 72.3271 43.7335 72.0309 43.7335H70.618L70.669 43.3329H73.5386ZM75.1571 43.3329C75.3513 43.3329 75.5067 43.3159 75.6232 43.2819C75.2494 43.1654 74.9629 43.0513 74.7638 42.9396C74.5647 42.8231 74.4239 42.692 74.3414 42.5463C74.2588 42.4006 74.2176 42.2161 74.2176 41.9928C74.2176 41.75 74.2758 41.5291 74.3924 41.33C74.5089 41.1261 74.6691 40.9658 74.8731 40.8493C75.0818 40.7279 75.3149 40.6672 75.5722 40.6672C75.9947 40.6672 76.3224 40.7983 76.5555 41.0605C76.7885 41.3227 76.9051 41.699 76.9051 42.1894V42.4443C76.9051 42.8716 76.7667 43.1945 76.4899 43.413C76.218 43.6315 75.8199 43.7408 75.2955 43.7408H73.5402C73.4917 43.7408 73.4674 43.6752 73.4674 43.5441C73.4674 43.4033 73.4917 43.3329 73.5402 43.3329H75.1571ZM76.1913 43.1508C76.4001 43.0051 76.5045 42.7697 76.5045 42.4443V42.2258C76.5045 41.449 76.184 41.0605 75.5431 41.0605C75.3732 41.0605 75.2178 41.1018 75.077 41.1843C74.9362 41.2669 74.8245 41.3786 74.742 41.5194C74.6594 41.6553 74.6181 41.8034 74.6181 41.9636C74.6181 42.153 74.6618 42.3108 74.7492 42.4371C74.8366 42.5584 74.9896 42.675 75.2081 42.7866C75.4314 42.8935 75.7592 43.0149 76.1913 43.1508ZM75.2226 39.8442V39.3854H75.849V39.8442H75.2226ZM78.2583 39.0139H78.6589V43.7408H78.2583V39.0139ZM80.9065 42.6992C80.9065 42.8935 80.9672 43.0488 81.0886 43.1654C81.2148 43.2771 81.3872 43.3329 81.6057 43.3329H81.6858C81.7343 43.3329 81.7586 43.4033 81.7586 43.5441C81.7586 43.6752 81.7343 43.7408 81.6858 43.7408H81.6057C81.4551 43.7408 81.3143 43.7116 81.1832 43.6534C81.0521 43.5951 80.9599 43.5198 80.9065 43.4276V43.5878C80.9065 43.9908 80.8264 44.338 80.6661 44.6293C80.5059 44.9255 80.285 45.1513 80.0034 45.3066C79.7217 45.462 79.4037 45.5397 79.0493 45.5397H78.5977L78.554 45.1391H79.0201C79.4862 45.1391 79.8504 44.9983 80.1126 44.7167C80.3797 44.4399 80.5132 44.0564 80.5132 43.566V41.5048H80.9065V42.6992ZM81.9171 43.3329C82.1599 43.3329 82.3517 43.2746 82.4925 43.1581C82.6333 43.0367 82.7037 42.8765 82.7037 42.6774V41.5048H83.097V42.6628C83.097 42.8279 83.1334 42.9639 83.2063 43.0707C83.2791 43.1727 83.3811 43.2431 83.5122 43.2819C83.9929 42.4079 84.4299 41.7816 84.8231 41.4028C85.2164 41.0241 85.6146 40.8347 86.0176 40.8347C86.2652 40.8347 86.491 40.8979 86.6949 41.0241C86.9037 41.1503 87.0664 41.3251 87.1829 41.5485C87.2994 41.7719 87.3577 42.0243 87.3577 42.306C87.3577 42.5876 87.297 42.8376 87.1756 43.0561C87.0591 43.2698 86.8892 43.4373 86.6658 43.5587C86.4425 43.6801 86.1827 43.7408 85.8865 43.7408H83.869C83.3495 43.7408 83.0193 43.5805 82.8785 43.2601C82.7911 43.4203 82.6649 43.5417 82.4998 43.6242C82.3347 43.7019 82.1405 43.7408 81.9171 43.7408H81.6841C81.6355 43.7408 81.6112 43.6752 81.6112 43.5441C81.6112 43.4033 81.6355 43.3329 81.6841 43.3329H81.9171ZM85.8865 43.3329C86.2264 43.3329 86.491 43.2406 86.6804 43.0561C86.8697 42.8716 86.9644 42.6216 86.9644 42.306C86.9644 41.9903 86.8722 41.733 86.6877 41.5339C86.508 41.33 86.2774 41.228 85.9957 41.228C85.6753 41.228 85.35 41.3956 85.0198 41.7306C84.6945 42.0608 84.323 42.5949 83.9055 43.3329H85.8865Z" fill="white"/>
<rect x="103.963" y="0.487574" width="34.9587" height="16.7802" rx="6.52341" fill="#696969"/>
<path fill-rule="evenodd" clip-rule="evenodd" d="M97.483 7.90076C95.5723 9.81142 95.5723 12.8866 95.5723 19.0369V42.4657C95.5723 48.616 95.5723 51.6911 97.483 53.6018C99.3937 55.5125 102.469 55.5125 108.619 55.5125H134.713C140.863 55.5125 143.938 55.5125 145.849 53.6018C147.76 51.6911 147.76 48.616 147.76 42.4657C147.76 40.2273 145.945 38.4128 143.707 38.4128H121.944C117.743 38.4128 114.338 35.0074 114.338 30.8067C114.338 26.6061 117.743 23.2007 121.944 23.2007H143.596C145.895 23.2007 147.76 21.3365 147.76 19.0369C147.76 12.8866 147.76 9.81142 145.849 7.90076C143.938 5.9901 140.863 5.9901 134.713 5.9901H108.619C102.469 5.9901 99.3937 5.9901 97.483 7.90076Z" fill="url(#paint0_linear_0_4)"/>
<g filter="url(#filter0_d_0_4)">
<circle cx="122.539" cy="30.7513" r="5.65362" fill="url(#paint1_linear_0_4)"/>
</g>
<defs>
<filter id="filter0_d_0_4" x="104.885" y="19.0977" width="35.3072" height="35.3072" filterUnits="userSpaceOnUse" color-interpolation-filters="sRGB">
<feFlood flood-opacity="0" result="BackgroundImageFix"/>
<feColorMatrix in="SourceAlpha" type="matrix" values="0 0 0 0 0 0 0 0 0 0 0 0 0 0 0 0 0 0 127 0" result="hardAlpha"/>
<feOffset dy="6"/>
<feGaussianBlur stdDeviation="6"/>
<feComposite in2="hardAlpha" operator="out"/>
<feColorMatrix type="matrix" values="0 0 0 0 0.301961 0 0 0 0 0.545098 0 0 0 0 0.894118 0 0 0 1 0"/>
<feBlend mode="normal" in2="BackgroundImageFix" result="effect1_dropShadow_0_4"/>
<feBlend mode="normal" in="SourceGraphic" in2="effect1_dropShadow_0_4" result="shape"/>
</filter>
<linearGradient id="paint0_linear_0_4" x1="121.666" y1="5.9901" x2="146.498" y2="65.5" gradientUnits="userSpaceOnUse">
<stop stop-color="#5A5A5A"/>
<stop offset="1" stop-color="#292929"/>
</linearGradient>
<linearGradient id="paint1_linear_0_4" x1="119" y1="25" x2="128.192" y2="39.4202" gradientUnits="userSpaceOnUse">
<stop stop-color="#6CA9FF"/>
<stop offset="1" stop-color="#0042A0"/>
</linearGradient>
</defs>
</svg>
